# xmcd
#
# Track frame offsets: 
#        150
#        16943
#        36313
#        63231
#        84381
#        104211
#        135773
#        159839
#        182122
#
# Disc length: 2828 seconds
#
# Revision: 0
# Processed by: cddbd v1.5.2PL0 Copyright (c) Steve Scherf et al.
# Submitted via: ExactAudioCopy v0.99pb4
#
DISCID=690b0a09
DTITLE=Catfish Blues Band - Catfish Blues Band
DYEAR=1999
DGENRE=Blues
TTITLE0=Checkin' Up On My babe
TTITLE1=All Kind Of Girls
TTITLE2=I Wish I Were A Catfish
TTITLE3=Swingin' The Blues
TTITLE4=Te Ni Nee Ni Nu
TTITLE5=Troubles, Troubles
TTITLE6=The Moon Is full
TTITLE7=You Got Me
TTITLE8=Cut You Loose
EXTD=
EXTT0=
EXTT1=
EXTT2=
EXTT3=
EXTT4=
EXTT5=
EXTT6=
EXTT7=
EXTT8=
PLAYORDER=
